<svg height="512pt" viewBox="0 0 512 512.00209" width="512pt" xmlns="http://www.w3.org/2000/svg"><path d="m512 256c0 80.207031-36.882812 151.804688-94.625 198.730469-8.285156 6.738281-17 12.964843-26.101562 18.640625-30.375 18.953125-65.003907 31.703125-102.128907 36.496094-3.226562.417968-6.476562.785156-9.75 1.066406-5.765625.535156-11.597656.867187-17.480469.992187-1.964843.054688-3.9375.074219-5.914062.074219-3.46875 0-6.925781-.074219-10.375-.207031-46.078125-1.832031-89.015625-15.851563-125.699219-38.925781-33.523437-21.074219-61.816406-49.695313-82.484375-83.496094-23.753906-38.839844-37.441406-84.5-37.441406-133.371094 0-96.933594 53.875-181.289062 133.328125-224.746094 10.566406-5.777344 21.589844-10.835937 32.988281-15.101562 27.910156-10.445313 58.128906-16.152344 89.683594-16.152344 54.691406 0 105.367188 17.148438 146.957031 46.363281 6.308594 4.417969 12.410157 9.132813 18.285157 14.09375 55.515624 46.96875 90.757812 117.132813 90.757812 195.542969zm0 0" fill="#fbcd58"/><path d="m417.375 454.730469c-35.953125 29.234375-79.988281 48.910156-128.230469 55.136719l-86.863281-9.421876c-15.328125-68.253906-46.433594-200.789062-4.574219-261.363281 20.550781-29.738281 63.425781-4.890625 64.269531-4.398437-.394531-1.066406-20.9375-56.371094 5.214844-112.816406 26.414063-56.988282 77.425782-13.855469 77.425782-13.855469 8.214843-29.414063 28.546874-72.222657 58.339843-61.648438 3.539063 1.242188 7.207031 3.25 11.011719 6.121094 2.976562 2.246094 5.371094 4.933594 7.273438 7.972656 20.9375 33.511719-19.058594 109.589844-19.058594 109.589844 17.144531-9.664063 74.90625-.125 48.972656 50.4375s-29.046875 69.402344-29.046875 69.402344 33.644531-38.496094 65.703125 1.972656c22.515625 28.433594-33.113281 102.128906-70.4375 162.871094zm0 0" fill="#319962"/><path d="m245.625 511.792969c-46.078125-1.832031-89.015625-15.851563-125.699219-38.925781-33.523437-21.074219-61.816406-49.695313-82.484375-83.496094 9.621094 3.835937 16.070313 11.210937 16.070313 11.210937s-2.550781-15.371093-23.710938-56.644531c-21.167969-41.273438 25.976563-49.066406 39.980469-41.179688 0 0-38.839844-73.871093-9.625-95.960937 29.226562-22.101563 49.109375 18.460937 56.613281 45.316406 0 0 41.636719-35.214843 63.203125 11.316407 21.347656 46.078124 4.589844 91.21875 4.265625 92.085937.710938-.40625 35.683594-20.667969 52.453125 3.605469 24.011719 34.742187 18.609375 98.503906 8.933594 152.671875zm0 0" fill="#319962"/><path d="m391.273438 473.371094c-30.375 18.953125-65.003907 31.703125-102.128907 36.496094-6.289062.816406-12.652343 1.402343-19.078125 1.746093-4.660156.261719-9.34375.386719-14.066406.386719-2.328125 0-4.660156-.03125-6.980469-.09375-47.363281-1.265625-91.511719-15.402344-129.09375-39.039062-35.652343-39.789063-73.511719-77.96875-51.945312-105.199219 36.195312-45.683594 87.804687 1.085937 87.804687 1.085937s-28.628906-97.308594-57.910156-154.394531c-29.277344-57.082031 35.9375-67.863281 55.296875-56.957031 0 0-47.164063-89.714844-19.84375-126.148438 1.832031-2.445312 4.003906-4.652344 6.542969-6.574218 9.5625-7.230469 18.390625-9.601563 26.445312-8.527344 26.019532 3.449218 43.929688 42.851562 51.847656 71.210937 0 0 57.597657-48.691406 87.417969 15.652344 29.582031 63.824219 6.269531 126.359375 5.894531 127.375.949219-.554687 49.347657-28.609375 72.554688 4.972656 37.28125 53.9375 23.300781 158.449219 7.242188 238.007813zm0 0" fill="#6dbb59"/><path d="m279.394531 510.933594c-.039062-8.738282-.175781-17.328125-.398437-25.777344 68.144531-126.683594 55.40625-188.484375 55.40625-188.484375 3.429687 54.570313-33.886719 115.636719-56.773438 155.335937-3.214844-57.589843-10.550781-107.882812-19.964844-151.1875 5.824219-23.910156 16.5625-84.332031-5.011718-142.992187 0 0 13.046875 51.542969-2.640625 110.890625-31.652344-121.550781-77.683594-178.515625-78.929688-180.039062.753907 1.460937 27.414063 52.945312 51.691407 136.042968-17.222657.785156-41.058594-18.179687-41.058594-18.179687 10.410156 17.796875 33.71875 28.78125 45.363281 33.359375 8.785156 31.921875 17.023437 67.96875 23.300781 107.230468-37.476562-11.40625-82.730468-71.410156-82.730468-71.410156 20.519531 46.101563 67.648437 81.96875 86.175781 94.777344 5.027343 37.285156 8.164062 77.144531 8.304687 118.863281-29.96875 3.890625-101.839844-51.75-102.929687-52.582031 25.652343 37.449219 65.652343 62.472656 89.820312 75.125 2.320313.066406 4.648438.097656 6.980469.097656 1.980469 0 3.949219-.039062 5.914062-.082031v.007813c.136719-.003907.269532-.011719.40625-.011719.605469-.015625 1.210938-.035157 1.816407-.054688 5.128906-.160156 10.21875-.464843 15.257812-.929687zm0 0" fill="#319962"/></svg>